<?xml version="1.0" encoding="UTF-8"?>
<svg width="50px" height="50px" viewBox="0 0 50 50" version="1.1" xmlns="http://www.w3.org/2000/svg" xmlns:xlink="http://www.w3.org/1999/xlink">
    <!-- Generator: Sketch 48.1 (47250) - http://www.bohemiancoding.com/sketch -->
    <title>Shape</title>
    <desc>Created with Sketch.</desc>
    <defs></defs>
    <g id="Новый-вариант" stroke="none" stroke-width="1" fill="none" fill-rule="evenodd" transform="translate(-1224.000000, -839.000000)">
        <g id="benefits" transform="translate(0.000000, 640.000000)" fill="#464646" fill-rule="nonzero">
            <g id="Group" transform="translate(269.000000, 80.000000)">
                <g id="Блок-2" transform="translate(86.000000, 119.000000)">
                    <g id="4" transform="translate(739.000000, 0.000000)">
                        <g id="gift" transform="translate(130.000000, 0.000000)">
                            <path d="M50,10.5280702 L36.6149123,10.5280702 C37.3298246,9.50614035 37.7192982,8.29210526 37.7192982,7.01315789 C37.7192982,5.36842105 37.0824561,3.82631579 35.927193,2.67105263 C33.5333333,0.277192982 29.6377193,0.277192982 27.2438596,2.67105263 L24.7622807,5.15263158 L22.2815789,2.67105263 C19.8877193,0.277192982 15.9921053,0.277192982 13.5982456,2.67105263 C12.4429825,3.82631579 11.8061404,5.36842105 11.8061404,7.01315789 C11.8061404,8.29210526 12.195614,9.50614035 12.9105263,10.5280702 L0,10.5280702 L0,22.8087719 L4.38596491,22.8087719 L4.38596491,49.1245614 L46.4912281,49.1245614 L46.4912281,22.8087719 L50,22.8087719 L50,10.5280702 Z M28.4842105,3.91140351 C30.1947368,2.20175439 32.977193,2.20175439 34.6868421,3.91140351 C35.5105263,4.73596491 35.9649123,5.83684211 35.9649123,7.01315789 C35.9649123,8.18859649 35.5105263,9.29035088 34.6868421,10.1140351 L34.272807,10.5280702 L21.8675439,10.5280702 L26.0026316,6.39298246 L28.4842105,3.91140351 Z M14.8385965,10.1140351 C14.0149123,9.29035088 13.5605263,8.18859649 13.5605263,7.01315789 C13.5605263,5.83684211 14.0149123,4.73596491 14.8385965,3.91140351 C16.5491228,2.20175439 19.3315789,2.20175439 21.0412281,3.91140351 L23.5219298,6.39298246 L20.4210526,9.49385965 C20.2394737,9.6754386 20.072807,9.88070175 19.9114035,10.0982456 C19.8640351,10.1622807 19.8175439,10.2315789 19.7719298,10.2991228 C19.7192982,10.3763158 19.6640351,10.445614 19.6140351,10.527193 L15.2526316,10.527193 L14.8385965,10.1140351 Z M1.75438596,21.054386 L1.75438596,12.2824561 L14.5254386,12.2824561 L18.677193,12.2824561 L20.6552632,12.2824561 L24.5614035,12.2824561 L24.5614035,21.054386 L4.38596491,21.054386 L1.75438596,21.054386 Z M24.5614035,22.8087719 L24.5614035,33.3350877 L6.14035088,33.3350877 L6.14035088,22.8087719 L24.5614035,22.8087719 Z M6.14035088,35.0894737 L24.5614035,35.0894737 L24.5614035,47.3701754 L6.14035088,47.3701754 L6.14035088,35.0894737 Z M26.3157895,47.3701754 L26.3157895,35.0894737 L44.7368421,35.0894737 L44.7368421,47.3701754 L26.3157895,47.3701754 Z M44.7368421,33.3350877 L26.3157895,33.3350877 L26.3157895,22.8087719 L44.7368421,22.8087719 L44.7368421,33.3350877 Z M48.245614,21.054386 L46.4912281,21.054386 L26.3157895,21.054386 L26.3157895,12.2824561 L34.9991228,12.2824561 L48.245614,12.2824561 L48.245614,21.054386 Z" id="Shape"></path>
                        </g>
                    </g>
                </g>
            </g>
        </g>
    </g>
</svg>