<?xml version="1.0" encoding="UTF-8"?>
<svg width="50px" height="49px" viewBox="0 0 50 49" version="1.1" xmlns="http://www.w3.org/2000/svg" xmlns:xlink="http://www.w3.org/1999/xlink">
    <!-- Generator: Sketch 48.1 (47250) - http://www.bohemiancoding.com/sketch -->
    <title>Forma_1-3</title>
    <desc>Created with Sketch.</desc>
    <defs></defs>
    <g id="Главная" stroke="none" stroke-width="1" fill="none" fill-rule="evenodd" transform="translate(-210.000000, -842.000000)">
        <g id="benefits" transform="translate(0.000000, 640.000000)" fill="#464646" fill-rule="nonzero">
            <g id="Group" transform="translate(183.000000, 80.000000)">
                <g id="Блок-2" transform="translate(0.000000, 122.000000)">
                    <g id="1" transform="translate(1.000000, 0.000000)">
                        <path d="M52.031,35.659 L52.031,31.402 C52.031,30.940842 51.657158,30.567 51.196,30.567 C50.734842,30.567 50.361,30.940842 50.361,31.402 L50.361,35.659 C50.361,36.120158 50.734842,36.494 51.196,36.494 C51.657158,36.494 52.031,36.120158 52.031,35.659 Z M46.238,38.443 C46.408154,38.301738 46.515152,38.098612 46.535411,37.878392 C46.55567,37.658172 46.487527,37.438934 46.346,37.269 L43.616,33.977 C43.321908,33.622157 42.795843,33.572909 42.441,33.867 C42.086157,34.161092 42.036908,34.687157 42.331,35.042 L45.062,38.335 C45.220811,38.525962 45.456632,38.635987 45.705,38.635 C45.899496,38.634403 46.087802,38.566571 46.238,38.443 L46.238,38.443 Z M56.938,38.588 L60.232,35.859 C60.461186,35.668577 60.571373,35.370351 60.521055,35.076658 C60.470737,34.782966 60.267559,34.538428 59.988055,34.435158 C59.708552,34.331889 59.395186,34.385577 59.166,34.576 L55.872,37.305 C55.633732,37.492459 55.515957,37.794453 55.564403,38.093728 C55.612849,38.393003 55.819884,38.642417 56.105125,38.745132 C56.390365,38.847847 56.708879,38.787683 56.937,38.588 L56.938,38.588 Z M73.263,16.975 C73.282305,16.915962 73.294721,16.85489 73.3,16.793 L73.3,14.398 C73.297827,14.271952 73.266691,14.148092 73.209,14.036 C73.216848,13.885789 73.182189,13.736409 73.109,13.605 L72.109,11.866 C67.854794,4.53162 60.02187,0.012245 51.543,0 L51.274,0 C42.793865,0.011436 34.959373,4.530837 30.704,11.866 L29.482,13.981 C29.408883,14.107831 29.370268,14.251603 29.37,14.398 L29.37,16.49 C27.272692,17.841312 26.003822,20.164059 26,22.659 L26,29.166 C26.006064,33.230805 29.301191,36.523696 33.366,36.527 L36.941,36.527 C38.320343,36.523701 39.437701,35.406343 39.441,34.027 L39.441,17.798 C39.437701,16.418657 38.320343,15.301299 36.941,15.298 L33.366,15.298 C32.573399,15.3077 31.787711,15.446867 31.04,15.71 L31.04,14.624 L32.148,12.703 C36.104189,5.884385 43.386803,1.682848 51.27,1.671 L51.538,1.671 C59.420702,1.682741 66.702769,5.884402 70.658,12.703 L71.629,14.388 L71.629,14.401 L71.629,15.948 C70.68836,15.522732 69.668304,15.301544 68.636,15.299 L65.061,15.299 C63.681884,15.302845 62.564845,16.419884 62.561,17.799 L62.561,34.027 C62.564845,35.406116 63.681884,36.523155 65.061,36.527 L68.636,36.527 C69.287936,36.517773 69.935698,36.421248 70.562,36.24 L66.598,43.094 C66.068024,44.005782 65.093617,44.567427 64.039,44.569 L57.317,44.569 C57.169704,44.571986 57.026092,44.615588 56.902,44.695 C56.581885,43.331136 55.366923,42.365704 53.966,42.362 L48.423,42.362 C46.764173,42.392075 45.435161,43.7454 45.435161,45.4045 C45.435161,47.0636 46.764173,48.416925 48.423,48.447 L53.966,48.447 C55.367153,48.441493 56.580236,47.472351 56.895,46.107 C57.021112,46.188152 57.167084,46.23312 57.317,46.237 L64.039,46.237 C65.687903,46.23376 67.210993,45.354937 68.039,43.929 L73.106,35.167 C73.151215,35.083519 73.181663,34.992851 73.196,34.899 C74.957031,33.516377 75.98857,31.403933 75.996,29.165 L75.996,22.659 C75.989114,20.448835 74.98439,18.360008 73.262,16.975 L73.263,16.975 Z M27.674,29.166 L27.674,22.659 C27.682455,19.834845 29.762126,17.444758 32.558,17.046 L32.558,34.724 C32.558,34.743 32.568,34.759 32.569,34.778 C29.768518,34.385112 27.682378,31.993892 27.673,29.166 L27.674,29.166 Z M37.781,17.798 L37.781,34.026 C37.779899,34.486539 37.40654,34.85945 36.946,34.86 L34.204,34.86 C34.217018,34.815898 34.226054,34.770717 34.231,34.725 L34.231,17.025 C34.231,17.003 34.22,16.984 34.218,16.962 L36.95,16.962 C37.409365,16.965297 37.780012,17.338623 37.78,17.798 L37.781,17.798 Z M47.073,45.382 C47.073,44.634759 47.678759,44.029 48.426,44.029 L48.726,44.029 C48.726,44.042 48.718,44.052 48.718,44.065 L48.718,46.777 L48.425,46.777 C48.059725,46.774687 47.710688,46.625746 47.456278,46.363627 C47.201869,46.101507 47.06341,45.748181 47.072,45.383 L47.073,45.382 Z M53.973,46.782 L50.393,46.782 L50.393,44.07 C50.393,44.057 50.387,44.047 50.386,44.034 L53.973,44.034 C54.464062,44.035072 54.917249,44.29804 55.161852,44.723848 C55.406454,45.149656 55.405311,45.673612 55.158852,46.098348 C54.912393,46.523084 54.458062,46.784072 53.967,46.783 L53.973,46.782 Z M64.233,34.03 L64.233,17.798 C64.233551,17.337071 64.607071,16.963551 65.068,16.963 L67.8,16.963 C67.8,16.986 67.787,17.004 67.787,17.026 L67.787,34.726 C67.791848,34.771732 67.800886,34.816922 67.814,34.861 L65.068,34.861 C64.845506,34.862599 64.631576,34.775332 64.473683,34.618566 C64.31579,34.461799 64.226994,34.248499 64.227,34.026 L64.233,34.03 Z M74.34,29.17 C74.330693,31.997562 72.245085,34.388661 69.445,34.782 C69.449624,34.764208 69.453296,34.746183 69.456,34.728 L69.456,17.046 C72.252093,17.444355 74.331974,19.834684 74.34,22.659 L74.34,29.166 L74.34,29.17 Z" id="Forma_1-3"></path>
                    </g>
                </g>
            </g>
        </g>
    </g>
</svg>