<?xml version="1.0" encoding="UTF-8"?>
<svg width="49px" height="50px" viewBox="0 0 49 50" version="1.1" xmlns="http://www.w3.org/2000/svg" xmlns:xlink="http://www.w3.org/1999/xlink">
    <!-- Generator: Sketch 48.1 (47250) - http://www.bohemiancoding.com/sketch -->
    <title>Group 23</title>
    <desc>Created with Sketch.</desc>
    <defs></defs>
    <g id="Главная" stroke="none" stroke-width="1" fill="none" fill-rule="evenodd" transform="translate(-389.000000, -1005.000000)">
        <g id="benefits" transform="translate(0.000000, 640.000000)" fill="#464646">
            <g id="Group" transform="translate(183.000000, 80.000000)">
                <g id="Блок-2" transform="translate(0.000000, 122.000000)">
                    <g id="5" transform="translate(165.000000, 163.000000)">
                        <g id="Group-23" transform="translate(41.000000, 0.000000)">
                            <path d="M0.839801306,28.3150086 C0.477821306,28.3134856 0.156621306,28.0826216 0.0398013061,27.7400086 C-0.100318694,27.3012546 0.141291306,26.8318996 0.579801306,26.6910086 L4.08980131,25.5510086 C4.37568131,25.4485696 4.69466131,25.5100216 4.92202131,25.7113366 C5.14937131,25.9126526 5.24899131,26.2218486 5.18191131,26.5180236 C5.11483131,26.8141986 4.89171131,27.0503006 4.59980131,27.1340086 L1.08980131,28.2750086 C1.00909131,28.3014286 0.924721306,28.3149286 0.839801306,28.3150086 Z M4.34980131,14.7320086 C4.26146131,14.7327906 4.17361131,14.7189366 4.08980131,14.6910086 L0.579801306,13.5510086 C0.142391306,13.4101756 -0.0980286939,12.9414186 0.0428013061,12.5040086 C0.183631306,12.0665986 0.652391306,11.8261756 1.08980131,11.9670086 L4.59980131,13.1070086 C4.99057131,13.2310596 5.23273131,13.6212966 5.17039131,14.0265216 C5.10804131,14.4317466 4.75979131,14.7311516 4.34980131,14.7320086 L4.34980131,14.7320086 Z M11.6698013,4.66500856 C11.4016913,4.66445956 11.1495913,4.53729856 10.9898013,4.32200856 L8.81980131,1.33800856 C8.56144131,0.965146561 8.64847131,0.454159561 9.01570131,0.187851561 C9.38293131,-0.0784574395 9.89567131,-0.00241643949 10.1698013,0.359008561 L12.3398013,3.34300856 C12.5255213,3.59534156 12.5533313,3.93075356 12.4116913,4.21022356 C12.2700513,4.48969456 11.9831113,4.66559156 11.6698013,4.66500856 L11.6698013,4.66500856 Z M47.2998013,28.3150086 C47.2114613,28.3157906 47.1236113,28.3019366 47.0398013,28.2740086 L43.5298013,27.1340086 C43.3190113,27.0675006 43.1439513,26.9188116 43.0442013,26.7215716 C42.9444513,26.5243306 42.9284413,26.2952026 42.9998013,26.0860086 C43.0675713,25.8754596 43.2164913,25.7006166 43.4135713,25.6001996 C43.6106513,25.4997826 43.8396313,25.4820786 44.0498013,25.5510086 L47.5498013,26.6910086 C47.9883113,26.8318996 48.2299213,27.3012546 48.0898013,27.7400086 C47.9802213,28.0835776 47.6604213,28.3163436 47.2998013,28.3150086 L47.2998013,28.3150086 Z M43.7898013,14.7320086 C43.3816913,14.7299016 43.0350613,14.4327696 42.9705813,14.0297836 C42.9061013,13.6267976 43.1427213,13.2363446 43.5298013,13.1070086 L47.0398013,11.9670086 C47.3227513,11.8759056 47.6328213,11.9426776 47.8531913,12.1421716 C48.0735713,12.3416666 48.1707713,12.6435746 48.1081913,12.9341726 C48.0456113,13.2247696 47.8327513,13.4599056 47.5498013,13.5510086 L44.0398013,14.6910086 C43.9592613,14.7182246 43.8748113,14.7320746 43.7898013,14.7320086 L43.7898013,14.7320086 Z M36.4698013,4.66500856 C36.2935913,4.66623656 36.1217113,4.61046356 35.9798013,4.50600856 C35.7989813,4.37804956 35.6770513,4.18289956 35.6413413,3.96428256 C35.6056213,3.74566656 35.6591013,3.52185956 35.7898013,3.34300856 L37.9598013,0.359008561 C38.1319313,0.110588561 38.4249913,-0.0252674395 38.7258113,0.00390456051 C39.0266313,0.0330755605 39.2881313,0.222709561 39.4093213,0.499575561 C39.5305213,0.776440561 39.4924413,1.09720856 39.3098013,1.33800856 L37.1398013,4.32200856 C36.9841313,4.53685656 36.7351213,4.66433356 36.4698013,4.66500856 L36.4698013,4.66500856 Z M42.2298013,40.1810086 L44.7798013,37.6330086 C44.9779113,37.4311156 45.0639213,37.1446366 45.0098013,36.8670086 C44.9388213,36.5972276 44.7467513,36.3756116 44.4898013,36.2670086 L38.5698013,33.9740086 C38.9418713,33.4715276 39.2825213,32.9465266 39.5898013,32.4020086 L39.6798013,32.2300086 C42.5566013,27.0396656 42.5882413,20.7406906 39.7637313,15.5217096 C36.9392113,10.3027296 31.6484613,6.88423456 25.7298013,6.45400856 C25.6286813,6.41063356 25.5198313,6.38818256 25.4098013,6.38800856 C25.2798013,6.38800856 25.1598013,6.41100856 25.0398013,6.41900856 C24.8298013,6.41200856 24.6298013,6.38800856 24.4298013,6.38800856 C24.2298013,6.38800856 24.0298013,6.41100856 23.8298013,6.41900856 C23.6998013,6.41200856 23.5798013,6.38800856 23.4598013,6.38800856 C23.3464413,6.38715756 23.2341113,6.40962356 23.1298013,6.45400856 C14.0376213,7.12005856 7.00103131,14.6909646 7.00103131,23.8075086 C7.00103131,32.9240526 14.0376213,40.4949586 23.1298013,41.1610086 C23.2343313,41.2045696 23.3465613,41.2266736 23.4598013,41.2260086 C23.5698013,41.2260086 23.6898013,41.2010086 23.7998013,41.1940086 C24.0098013,41.2020086 24.2198013,41.2260086 24.4298013,41.2260086 C24.6098013,41.2260086 24.7898013,41.1960086 24.9698013,41.1900086 C25.1198013,41.2000086 25.2598013,41.2260086 25.3998013,41.2260086 C25.5249213,41.2243566 25.6480313,41.1942636 25.7598013,41.1380086 C28.0411413,40.9633666 30.2662713,40.3440676 32.3098013,39.3150086 L34.8598013,45.8920086 C34.9604213,46.1570276 35.1894913,46.3522556 35.4671113,46.4096036 C35.7447313,46.4669506 36.0324013,46.3784656 36.2298013,46.1750086 L38.7798013,43.6270086 L44.8898013,49.7560086 C45.2256013,50.0667766 45.7440013,50.0667766 46.0798013,49.7560086 L48.3598013,47.4740086 C48.5104013,47.3107956 48.5927113,47.0960676 48.5898013,46.8740086 C48.5930613,46.6560516 48.5104413,46.4455616 48.3598013,46.2880086 L42.2298013,40.1810086 Z M34.5098013,32.4030086 L37.6298013,32.4030086 C37.4198013,32.7280086 37.1798013,33.0350086 36.9498013,33.3460086 L34.5098013,32.4030086 Z M25.2598013,8.37300856 C29.3698013,9.83900856 32.4698013,16.2020086 32.4698013,23.8080086 C32.4768313,26.1509396 32.1570813,28.4834036 31.5198013,30.7380086 L25.2598013,30.7380086 L25.2598013,8.37100856 L25.2598013,8.37100856 L25.2598013,8.37300856 Z M40.1998013,23.8080086 C40.1946813,26.2109256 39.6405813,28.5809046 38.5798013,30.7370086 L33.2598013,30.7370086 C33.8462413,28.4740936 34.1419613,26.1456776 34.1398013,23.8080086 C34.1398013,17.3380086 31.9598013,11.6940086 28.7398013,8.69000856 C35.5055413,10.6059616 40.1819413,16.7742396 40.1998013,23.8060086 L40.1998013,23.8080086 Z M8.66980131,23.8080086 C8.67996131,16.7601216 13.3671513,10.5753266 20.1498013,8.66000856 C16.9098013,11.6600086 14.7198013,17.3180086 14.7198013,23.8080086 C14.7133013,26.1465876 15.0125013,28.4759846 15.6098013,30.7370086 L10.2898013,30.7370086 C9.22454131,28.5817956 8.67020131,26.2101126 8.66980131,23.8060086 L8.66980131,23.8080086 Z M11.2398013,32.4080086 L16.1198013,32.4080086 C16.9174813,34.8842426 18.2997813,37.1319486 20.1498013,38.9610086 C16.4854413,37.9212866 13.3207913,35.5913056 11.2398013,32.4010086 L11.2398013,32.4080086 Z M23.5998013,39.2480086 C21.1998013,38.3930086 19.1498013,35.8680086 17.8598013,32.4080086 L23.5998013,32.4080086 L23.5998013,39.2480086 Z M23.5998013,30.7480086 L17.3198013,30.7480086 C16.6952113,28.4912306 16.3823113,26.1596116 16.3898013,23.8180086 C16.3898013,16.2130086 19.4898013,9.85100856 23.5998013,8.38400856 L23.5998013,30.7480086 L23.5998013,30.7480086 L23.5998013,30.7480086 Z M25.2598013,39.2350086 L25.2598013,32.4130086 L29.6298013,32.4130086 L30.2698013,34.0640086 C28.9498013,36.7300086 27.1898013,38.5260086 25.2598013,39.2230086 L25.2598013,39.2350086 Z M28.7498013,38.9570086 C29.6450613,38.1097766 30.4190313,37.1429786 31.0498013,36.0840086 L31.7098013,37.7640086 C30.7652613,38.2560026 29.7736013,38.6516646 28.7498013,38.9450086 L28.7498013,38.9570086 Z M45.4798013,47.9880086 L39.3598013,41.8600086 C39.0279113,41.5490976 38.5116913,41.5490976 38.1798013,41.8600086 L35.9398013,44.0910086 L31.9698013,33.8240086 C31.9598013,33.8240086 31.9598013,33.8240086 31.9598013,33.8160086 L31.6798013,33.0830086 L36.9798013,35.1370086 C36.9934013,35.1400556 37.0067713,35.1440656 37.0198013,35.1490086 L42.6898013,37.3490086 L40.4598013,39.5810086 C40.1398513,39.9104436 40.1398513,40.4345736 40.4598013,40.7640086 L46.5898013,46.8750086 L45.4798013,47.9880086 Z" id="Forma_1-4" fill-rule="nonzero"></path>
                            <path d="M38.8498013,16.7650086 L10.8998013,16.7650086 C10.4397513,16.7650086 10.0668013,16.3920616 10.0668013,15.9320086 C10.0668013,15.4719556 10.4397513,15.0990086 10.8998013,15.0990086 L38.8498013,15.0990086 C39.2934613,15.1207676 39.6420013,15.4868176 39.6420013,15.9310086 C39.6420013,16.3751996 39.2934613,16.7412496 38.8498013,16.7630086 L38.8498013,16.7650086 Z" id="Forma_1-4-path"></path>
                        </g>
                    </g>
                </g>
            </g>
        </g>
    </g>
</svg>